<svg width="177" height="33" viewBox="0 0 177 33" fill="none" xmlns="http://www.w3.org/2000/svg">
<path d="M48.721 17.9293H43.4292L42.1594 21.462H39.9173L44.9293 8.39169H47.2573L52.2694 21.462H49.9894L48.721 17.9293ZM43.9774 16.2998H48.1721L46.1039 10.5657H46.046L43.9774 16.2998ZM63.3454 16.6984C63.3454 19.6602 61.6609 21.562 59.1216 21.562C57.6779 21.562 56.5346 20.9548 55.9373 19.8938H55.8893V24.6132H53.8109V11.9313H55.8213V13.5172H55.8588C56.4357 12.4933 57.6677 11.8333 59.0823 11.8333C61.6525 11.8336 63.3454 13.7453 63.3454 16.6984ZM61.2109 16.6984C61.2109 14.7686 60.1527 13.5011 58.5366 13.5011C56.9496 13.5011 55.8813 14.7967 55.8813 16.6984C55.8813 18.6184 56.9496 19.9057 58.5366 19.9057C60.1527 19.9044 61.2109 18.6441 61.2109 16.6984ZM74.5644 16.6984C74.5644 19.6602 72.8803 21.562 70.3409 21.562C68.8973 21.562 67.7536 20.9548 67.1567 19.8938H67.109V24.6132H65.0306V11.9313H67.041V13.5172H67.0785C67.6554 12.4933 68.8874 11.8333 70.302 11.8333C72.8701 11.8336 74.5644 13.7453 74.5644 16.6984ZM72.4281 16.6984C72.4281 14.7686 71.37 13.5011 69.7539 13.5011C68.1668 13.5011 67.0985 14.7967 67.0985 16.6984C67.0985 18.6184 68.1668 19.9057 69.7539 19.9057C71.3696 19.9044 72.4281 18.6441 72.4281 16.6984ZM76.3235 8.39169H78.402V21.462H76.3235V8.39169ZM89.6445 18.6636C89.3658 20.3938 87.5758 21.5801 85.2857 21.5801C82.3419 21.5801 80.5141 19.7226 80.5141 16.7437C80.5141 13.7548 82.3521 11.8154 85.1984 11.8154C87.9989 11.8154 89.758 13.6265 89.758 16.5166V17.1868H82.6093V17.304C82.6093 18.9342 83.6966 20.0034 85.3316 20.0034C86.4854 20.0034 87.3897 19.4876 87.6694 18.6629L89.6445 18.6636ZM82.6216 15.8193H87.6817C87.634 14.3607 86.6425 13.4017 85.2002 13.4017C83.7653 13.4017 82.7257 14.3782 82.6216 15.8193ZM101.604 8.39169C104.298 8.39169 106.175 10.1397 106.175 12.685C106.175 15.2395 104.26 16.9958 101.538 16.9958H98.5551V21.4607H96.3996V8.39136L101.604 8.39169ZM98.5548 15.294H101.028C102.903 15.294 103.971 14.3429 103.971 12.6946C103.971 11.0459 102.903 10.1041 101.038 10.1041H98.5568V15.294H98.5548ZM107.149 16.6984C107.149 13.7001 109.024 11.8154 111.949 11.8154C114.883 11.8154 116.749 13.6987 116.749 16.6984C116.749 19.7061 114.892 21.5815 111.949 21.5815C109.005 21.5815 107.149 19.7044 107.149 16.6984ZM114.634 16.6984C114.634 14.6419 113.633 13.4288 111.95 13.4288C110.265 13.4288 109.266 14.6515 109.266 16.6984C109.266 18.7629 110.266 19.9681 111.95 19.9681C113.633 19.9681 114.634 18.7629 114.634 16.6984ZM118.188 16.6984C118.188 13.7548 119.911 11.8349 122.421 11.8349C123.873 11.8349 125.018 12.4678 125.595 13.5192H125.633V8.39202H127.72V21.462H125.699V19.8414H125.662C125.065 20.9277 123.911 21.5623 122.438 21.5623C119.911 21.562 118.188 19.642 118.188 16.6984ZM120.313 16.6984C120.313 18.6553 121.372 19.9057 122.988 19.9057C124.585 19.9057 125.653 18.6375 125.653 16.6984C125.653 14.7785 124.584 13.5011 122.988 13.5011C121.372 13.4998 120.313 14.759 120.313 16.6984ZM136.738 15.2121C136.556 14.2066 135.718 13.4545 134.352 13.4545C132.755 13.4545 131.697 14.7138 131.697 16.6971C131.697 18.726 132.766 19.9489 134.371 19.9489C135.661 19.9489 136.508 19.3417 136.738 18.2376H138.74C138.508 20.2393 136.806 21.5798 134.352 21.5798C131.467 21.5798 129.581 19.7226 129.581 16.6971C129.581 13.7354 131.467 11.8141 134.334 11.8141C136.931 11.8141 138.547 13.3536 138.721 15.2108H136.739V15.2121H136.738ZM140.055 18.7359C140.055 17.0697 141.412 16.0912 143.932 15.9464L146.626 15.8018V15.0775C146.626 13.999 145.866 13.4206 144.547 13.4206C143.459 13.4206 142.661 13.9459 142.497 14.7607H140.553C140.611 13.0579 142.304 11.8171 144.605 11.8171C147.086 11.8171 148.692 13.0401 148.692 14.9326V21.464H146.702V19.8971H146.654C146.086 20.9208 144.825 21.5999 143.459 21.5999C141.449 21.5989 140.055 20.4291 140.055 18.7359ZM146.624 17.8937V17.1595L144.2 17.304C142.853 17.3763 142.142 17.8657 142.142 18.69C142.142 19.4869 142.883 20.0493 144.037 20.0493C145.508 20.0486 146.624 19.1259 146.624 17.8937ZM154.769 11.8237C157.01 11.8237 158.616 12.9916 158.665 14.6769H156.713C156.624 13.835 155.866 13.3179 154.711 13.3179C153.586 13.3179 152.835 13.806 152.835 14.5498C152.835 15.1204 153.336 15.5012 154.383 15.7454L156.086 16.1167C158.125 16.5777 158.895 17.2845 158.895 18.6798C158.895 20.4007 157.163 21.5778 154.69 21.5778C152.305 21.5778 150.699 20.4278 150.545 18.6877H152.603C152.748 19.6021 153.528 20.0918 154.787 20.0918C156.028 20.0918 156.809 19.6114 156.809 18.8514C156.809 18.2617 156.424 17.9452 155.366 17.6908L153.558 17.2746C151.73 16.8568 150.806 15.9794 150.806 14.6571C150.805 12.9757 152.411 11.8237 154.769 11.8237ZM163.491 9.67836V11.9329H165.415V13.4816H163.491V18.7359C163.491 19.552 163.878 19.9315 164.724 19.9315C164.936 19.9315 165.272 19.9037 165.406 19.8859V21.425C165.176 21.4798 164.713 21.5148 164.253 21.5148C162.203 21.5148 161.405 20.7908 161.405 18.9424V13.4816H159.932V11.9323H161.405V9.67803L163.491 9.67836ZM170.989 11.8237C173.231 11.8237 174.837 12.9916 174.885 14.6769H172.934C172.845 13.835 172.087 13.3179 170.932 13.3179C169.807 13.3179 169.056 13.806 169.056 14.5498C169.056 15.1204 169.556 15.5012 170.604 15.7454L172.307 16.1167C174.345 16.5777 175.116 17.2845 175.116 18.6798C175.116 20.4007 173.384 21.5778 170.911 21.5778C168.525 21.5778 166.92 20.4278 166.766 18.6877H168.824C168.969 19.6021 169.749 20.0918 171.008 20.0918C172.249 20.0918 173.03 19.6114 173.03 18.8514C173.03 18.2617 172.645 17.9452 171.587 17.6908L169.779 17.2746C167.95 16.8568 167.027 15.9794 167.027 14.6571C167.025 12.9757 168.631 11.8237 170.989 11.8237Z" fill="white"/>
<path d="M20.4675 18.9365C19.9803 18.453 19.1254 18.1418 18.1153 18.1418C17.1052 18.1418 16.25 18.4517 15.7628 18.9365C15.5132 19.1724 15.3604 19.4843 15.3324 19.8163C15.2497 20.53 15.2959 21.1455 15.3846 22.1282C15.4687 23.0648 15.6296 24.3145 15.8395 25.5863C15.9888 26.4912 16.1105 26.9802 16.2205 27.3304C16.3989 27.897 17.0684 28.3936 18.1149 28.3936C19.1612 28.3936 19.8296 27.8983 20.0094 27.3304C20.1194 26.9806 20.2414 26.4925 20.3904 25.5863C20.6007 24.3145 20.7615 23.0658 20.8457 22.1282C20.934 21.1455 20.9802 20.5304 20.8975 19.8163C20.8698 19.4843 20.7174 19.1724 20.4675 18.9365ZM15.461 14.6277C15.461 16.0097 16.6506 17.1291 18.1178 17.1291C19.5849 17.1291 20.7745 16.0094 20.7745 14.6277C20.7745 13.2463 19.5849 12.1263 18.1178 12.1263C16.6506 12.1263 15.461 13.2466 15.461 14.6277ZM18.0848 4.75737C11.8726 4.77354 6.78204 9.51861 6.70493 15.3675C6.64255 20.1053 9.85448 24.1587 14.3405 25.6434C14.4207 25.6698 14.5084 25.6302 14.5364 25.5543C14.5445 25.5328 14.5469 25.5091 14.5438 25.486C14.4842 25.118 14.4291 24.7494 14.3783 24.3851C14.3611 24.2567 14.2735 24.1465 14.148 24.0944C10.4861 22.5896 8.1318 19.1728 8.16615 15.4111C8.21872 10.3225 12.6322 6.17373 18.0368 6.13281C23.562 6.09057 28.0725 10.3113 28.0725 15.5035C28.0683 19.2328 25.7196 22.6054 22.0892 24.096C21.9637 24.1482 21.8761 24.2584 21.8586 24.3868C21.8074 24.754 21.7524 25.1207 21.6935 25.4866C21.6805 25.5649 21.7373 25.6381 21.8204 25.65C21.8456 25.654 21.8712 25.6516 21.8947 25.6431C26.3372 24.1723 29.5316 20.1819 29.5316 15.5025C29.532 9.56778 24.3941 4.74087 18.0848 4.75737ZM17.8791 9.6879C21.2964 9.56415 24.1729 12.0721 24.3043 15.2896C24.3071 15.3619 24.3089 15.4345 24.3089 15.5068C24.3096 17.1155 23.6016 18.652 22.3535 19.7509C22.2518 19.841 22.1975 19.9687 22.2042 20.1007C22.2273 20.5003 22.2189 20.8894 22.1912 21.3273C22.1867 21.4055 22.2501 21.4725 22.3332 21.4768C22.3661 21.4791 22.3987 21.4699 22.426 21.4534C24.5164 20.1129 25.7677 17.8867 25.7684 15.5061C25.7642 11.5263 22.3346 8.30388 18.1083 8.30751C18.0123 8.30751 17.9159 8.30949 17.8198 8.31312C13.7744 8.4603 10.5278 11.6006 10.477 15.4134C10.4447 17.8273 11.6998 20.0961 13.8193 21.455C13.8873 21.4989 13.9802 21.4828 14.0268 21.4187C14.0457 21.3927 14.0548 21.361 14.0527 21.3293C14.0219 20.9208 14.0173 20.5106 14.0394 20.101C14.0471 19.9694 13.9924 19.8413 13.8901 19.7512C12.5992 18.6157 11.8884 17.0126 11.9378 15.3504C12.0356 12.288 14.6282 9.81726 17.8791 9.6879Z" fill="white"/>
</svg>
