<svg width="260" height="46" viewBox="0 0 260 46" fill="none" xmlns="http://www.w3.org/2000/svg">
<g clip-path="url(#clip0)">
<path d="M52.4548 46L55.1206 39.0327H55.7479L53.082 46H52.4548V46Z" fill="white"/>
<path d="M59.9035 39.1121H63.3534V39.8246H60.6876V41.9623H63.1182V42.6749H60.6876V45.6043H59.8251V39.1121H59.9035Z" fill="white"/>
<path d="M67.9795 39.1911C68.3715 39.1119 68.9988 39.0327 69.5476 39.0327C70.4101 39.0327 71.0374 39.1911 71.4294 39.5869C71.7431 39.9036 71.8999 40.2995 71.8999 40.8537C71.8999 41.7246 71.351 42.2788 70.7238 42.5164C71.1942 42.6747 71.5078 43.1498 71.6647 43.8623C71.8999 44.7332 72.0567 45.3666 72.1351 45.6833H71.351C71.2726 45.525 71.1158 44.9708 70.959 44.0998C70.8022 43.2289 70.4101 42.8331 69.7045 42.8331H68.9204V45.6833H68.0579V39.1911H67.9795ZM68.842 42.1205H69.7045C70.5669 42.1205 71.1942 41.6455 71.1942 40.8537C71.1942 39.9828 70.5669 39.6661 69.7045 39.6661C69.3124 39.6661 68.9988 39.6661 68.9204 39.7453V42.1205H68.842Z" fill="white"/>
<path d="M79.8975 42.5956H77.3884V44.9709H80.2111V45.6834H76.6044V39.1912H80.0543V39.9037H77.3884V41.9622H79.8975V42.5956Z" fill="white"/>
<path d="M88.0519 42.5956H85.5428V44.9709H88.3655V45.6834H84.7587V39.1912H88.2087V39.9037H85.5428V41.9622H88.0519V42.5956Z" fill="white"/>
<path d="M92.9131 39.1911C93.3836 39.1119 94.0109 39.0327 94.7165 39.0327C95.8926 39.0327 96.7551 39.3494 97.304 39.8245C97.8528 40.3787 98.2449 41.0912 98.2449 42.1997C98.2449 43.2289 97.9312 44.0998 97.304 44.7332C96.6767 45.3666 95.7358 45.6833 94.4813 45.6833C93.854 45.6833 93.3836 45.6833 92.9916 45.6041V39.1911H92.9131ZM93.6972 44.9708C93.9324 44.9708 94.2461 45.0499 94.5597 45.0499C96.3631 45.0499 97.304 44.0207 97.304 42.2788C97.304 40.7745 96.4415 39.7453 94.7165 39.7453C94.3245 39.7453 93.9324 39.7453 93.7756 39.8245V44.9708H93.6972Z" fill="white"/>
<path d="M108.203 42.2789C108.203 44.4958 106.87 45.6834 105.223 45.6834C103.498 45.6834 102.322 44.3374 102.322 42.3581C102.322 40.2996 103.577 38.9536 105.302 38.9536C107.027 39.0328 108.203 40.3787 108.203 42.2789ZM103.185 42.4373C103.185 43.8624 103.969 45.05 105.223 45.05C106.556 45.05 107.262 43.8624 107.262 42.3581C107.262 41.0913 106.556 39.7454 105.223 39.7454C103.89 39.6662 103.185 40.933 103.185 42.4373Z" fill="white"/>
<path d="M118.16 42.7541C118.082 41.8831 118.082 40.7747 118.082 39.983C117.847 40.7747 117.612 41.5664 117.298 42.4374L116.122 45.6043H115.495L114.475 42.5165C114.162 41.5664 113.926 40.7747 113.691 39.983C113.691 40.7747 113.613 41.8831 113.534 42.8332L113.378 45.6043H112.593L113.064 39.1121H114.162L115.259 42.279C115.495 43.0708 115.73 43.7833 115.887 44.4959C116.043 43.8625 116.279 43.1499 116.592 42.279L117.768 39.1121H118.866L119.258 45.6043H118.474L118.16 42.7541Z" fill="white"/>
<path d="M129.294 39.1911C129.686 39.1119 130.235 39.0327 130.784 39.0327C131.647 39.0327 132.117 39.1911 132.587 39.5078C132.901 39.7453 133.136 40.1412 133.136 40.6954C133.136 41.3288 132.744 41.883 132.039 42.1205C132.666 42.2788 133.372 42.7539 133.372 43.7831C133.372 44.3374 133.136 44.7332 132.823 45.0499C132.352 45.4458 131.647 45.6833 130.627 45.6833C130.078 45.6833 129.608 45.6833 129.373 45.6041V39.1911H129.294ZM130.157 41.883H130.941C131.803 41.883 132.352 41.4079 132.352 40.7745C132.352 39.9828 131.803 39.7453 130.941 39.7453C130.549 39.7453 130.314 39.7453 130.235 39.8245V41.883H130.157ZM130.157 44.9708C130.314 44.9708 130.549 44.9708 130.862 44.9708C131.725 44.9708 132.509 44.6541 132.509 43.704C132.509 42.8331 131.725 42.4372 130.862 42.4372H130.157V44.9708Z" fill="white"/>
<path d="M138.782 39.1121V42.9916C138.782 44.4167 139.409 45.0501 140.271 45.0501C141.212 45.0501 141.84 44.4167 141.84 42.9916V39.1121H142.702V42.9124C142.702 44.8918 141.683 45.7627 140.271 45.7627C138.938 45.7627 137.919 44.9709 137.919 42.9916V39.1912H138.782V39.1121Z" fill="white"/>
<path d="M147.485 44.5749C147.877 44.8124 148.426 44.9708 148.975 44.9708C149.837 44.9708 150.308 44.4957 150.308 43.8623C150.308 43.2289 149.994 42.9122 149.131 42.5955C148.112 42.1997 147.407 41.6455 147.407 40.7745C147.407 39.7453 148.269 39.0327 149.524 39.0327C150.151 39.0327 150.7 39.1911 150.935 39.3494L150.7 40.062C150.464 39.9828 150.072 39.7453 149.445 39.7453C148.583 39.7453 148.269 40.2995 148.269 40.6954C148.269 41.3288 148.661 41.5663 149.524 41.9621C150.621 42.358 151.17 42.9122 151.17 43.8623C151.17 44.8916 150.464 45.7625 148.896 45.7625C148.269 45.7625 147.563 45.6041 147.25 45.3666L147.485 44.5749Z" fill="white"/>
<path d="M156.58 39.1121V45.6043H155.718V39.1121H156.58V39.1121Z" fill="white"/>
<path d="M161.442 45.6043V39.1121H162.382L164.421 42.4374C164.891 43.2291 165.283 43.8625 165.597 44.5751C165.519 43.7041 165.519 42.9124 165.519 41.8831V39.1912H166.303V45.6835H165.44L163.402 42.3582C162.931 41.6456 162.539 40.8539 162.226 40.2205C162.304 41.0122 162.304 41.804 162.304 42.9124V45.6835H161.442V45.6043Z" fill="white"/>
<path d="M174.536 42.5956H172.027V44.9709H174.849V45.6834H171.242V39.1912H174.692V39.9037H172.027V41.9622H174.536V42.5956Z" fill="white"/>
<path d="M179.24 44.5749C179.632 44.8124 180.181 44.9708 180.73 44.9708C181.592 44.9708 182.063 44.4957 182.063 43.8623C182.063 43.2289 181.749 42.9122 180.887 42.5955C179.867 42.1997 179.162 41.6455 179.162 40.7745C179.162 39.7453 180.024 39.0327 181.279 39.0327C181.906 39.0327 182.455 39.1911 182.69 39.3494L182.455 40.062C182.22 39.9828 181.828 39.7453 181.2 39.7453C180.338 39.7453 180.024 40.2995 180.024 40.6954C180.024 41.3288 180.416 41.5663 181.279 41.9621C182.376 42.358 182.925 42.9122 182.925 43.8623C182.925 44.8916 182.22 45.7625 180.651 45.7625C180.024 45.7625 179.318 45.6041 179.005 45.3666L179.24 44.5749Z" fill="white"/>
<path d="M187.394 44.5749C187.787 44.8124 188.335 44.9708 188.884 44.9708C189.747 44.9708 190.217 44.4957 190.217 43.8623C190.217 43.2289 189.904 42.9122 189.041 42.5955C188.022 42.1997 187.316 41.6455 187.316 40.7745C187.316 39.7453 188.179 39.0327 189.433 39.0327C190.06 39.0327 190.609 39.1911 190.844 39.3494L190.609 40.062C190.374 39.9828 189.982 39.7453 189.355 39.7453C188.492 39.7453 188.179 40.2995 188.179 40.6954C188.179 41.3288 188.571 41.5663 189.433 41.9621C190.531 42.358 191.08 42.9122 191.08 43.8623C191.08 44.8916 190.374 45.7625 188.806 45.7625C188.179 45.7625 187.473 45.6041 187.159 45.3666L187.394 44.5749Z" fill="white"/>
<path d="M201.116 39.1911C201.508 39.1119 202.057 39.0327 202.684 39.0327C203.468 39.0327 204.095 39.1911 204.487 39.5869C204.879 39.9036 205.036 40.3787 205.036 40.9329C205.036 41.4871 204.879 41.9621 204.566 42.358C204.095 42.8331 203.39 43.0706 202.606 43.0706C202.37 43.0706 202.135 43.0706 201.9 42.9914V45.6041H201.037V39.1911H201.116ZM201.978 42.358C202.135 42.4372 202.37 42.4372 202.684 42.4372C203.703 42.4372 204.331 41.9621 204.331 41.0121C204.331 40.1411 203.703 39.7453 202.841 39.7453C202.449 39.7453 202.214 39.7453 202.057 39.8245V42.358H201.978Z" fill="white"/>
<path d="M215.151 42.2789C215.151 44.4958 213.818 45.6834 212.171 45.6834C210.446 45.6834 209.27 44.3374 209.27 42.3581C209.27 40.2996 210.525 38.9536 212.25 38.9536C213.975 39.0328 215.151 40.3787 215.151 42.2789ZM210.133 42.4373C210.133 43.8624 210.917 45.05 212.171 45.05C213.504 45.05 214.21 43.8624 214.21 42.3581C214.21 41.0913 213.504 39.7454 212.171 39.7454C210.838 39.6662 210.133 40.933 210.133 42.4373Z" fill="white"/>
<path d="M219.698 39.1911C220.169 39.1119 220.796 39.0327 221.502 39.0327C222.678 39.0327 223.54 39.3494 224.089 39.8245C224.638 40.3787 225.03 41.0912 225.03 42.1997C225.03 43.2289 224.717 44.0998 224.089 44.7332C223.462 45.3666 222.521 45.6833 221.267 45.6833C220.639 45.6833 220.169 45.6833 219.777 45.6041V39.1911H219.698ZM220.483 44.9708C220.718 44.9708 221.031 45.0499 221.345 45.0499C223.148 45.0499 224.089 44.0207 224.089 42.2788C224.089 40.7745 223.227 39.7453 221.502 39.7453C221.11 39.7453 220.718 39.7453 220.561 39.8245V44.9708H220.483Z" fill="white"/>
<path d="M233.969 45.3667C233.655 45.525 233.028 45.6834 232.244 45.6834C230.44 45.6834 229.029 44.4958 229.029 42.3581C229.029 40.2996 230.362 38.9536 232.4 38.9536C233.185 38.9536 233.733 39.112 233.969 39.2703L233.733 39.9829C233.42 39.8245 232.949 39.7454 232.4 39.7454C230.911 39.7454 229.891 40.6954 229.891 42.4373C229.891 44.0207 230.832 45.05 232.4 45.05C232.871 45.05 233.42 44.9708 233.733 44.8125L233.969 45.3667Z" fill="white"/>
<path d="M239.536 43.5458L238.83 45.6043H237.967L240.163 39.1121H241.182L243.378 45.6043H242.515L241.809 43.5458H239.536V43.5458ZM241.653 42.9124L241.025 41.0122C240.869 40.6164 240.79 40.2205 240.712 39.8246C240.633 40.2205 240.476 40.6164 240.398 41.0122L239.771 42.9124H241.653Z" fill="white"/>
<path d="M247.69 44.5749C248.082 44.8124 248.631 44.9708 249.18 44.9708C250.042 44.9708 250.513 44.4957 250.513 43.8623C250.513 43.2289 250.199 42.9122 249.337 42.5955C248.317 42.1997 247.612 41.6455 247.612 40.7745C247.612 39.7453 248.474 39.0327 249.729 39.0327C250.356 39.0327 250.905 39.1911 251.14 39.3494L250.905 40.062C250.669 39.9828 250.277 39.7453 249.65 39.7453C248.788 39.7453 248.474 40.2995 248.474 40.6954C248.474 41.3288 248.866 41.5663 249.729 41.9621C250.826 42.358 251.375 42.9122 251.375 43.8623C251.375 44.8916 250.669 45.7625 249.101 45.7625C248.474 45.7625 247.768 45.6041 247.455 45.3666L247.69 44.5749Z" fill="white"/>
<path d="M257.177 39.8246H255.217V39.1121H260V39.8246H258.04V45.6043H257.177V39.8246Z" fill="white"/>
<path fill-rule="evenodd" clip-rule="evenodd" d="M36.6164 5.06724H30.5006V0.950195H47.3583V5.06724H41.3209V22.0896H36.6164V5.06724Z" fill="white"/>
<path fill-rule="evenodd" clip-rule="evenodd" d="M66.3329 13.143C67.8226 12.8263 68.9988 12.1929 69.7828 11.1636C70.5669 10.1344 70.959 8.86758 70.959 7.36328C70.959 6.0965 70.7237 5.06724 70.3317 4.2755C69.9396 3.48376 69.3124 2.77119 68.6067 2.29615C67.9011 1.82111 67.0386 1.42524 66.0193 1.26689C65.0784 1.02937 63.9807 0.950195 62.9614 0.950195H54.6501V22.0104H59.3546V13.618H61.7068L66.1761 22.0104H71.8214L66.3329 13.143ZM65.7056 8.70923C65.4704 9.02593 65.1568 9.26345 64.7647 9.4218C64.3727 9.58014 63.9807 9.65932 63.5102 9.65932C63.0398 9.65932 62.5693 9.73849 62.1773 9.73849H59.433V4.90889H62.4909C62.883 4.90889 63.3534 4.90889 63.8239 4.98806C64.2943 5.06724 64.6863 5.14641 65 5.30476C65.3136 5.4631 65.6272 5.70063 65.8624 6.01732C66.0977 6.33402 66.1761 6.72989 66.1761 7.2841C66.0977 7.91749 65.9409 8.39254 65.7056 8.70923Z" fill="white"/>
<path fill-rule="evenodd" clip-rule="evenodd" d="M123.492 0.950195H137.919V5.22558H128.197V9.18428H137.449V13.4597H128.197V17.735H138.468V22.0896H123.492V0.950195Z" fill="white"/>
<path fill-rule="evenodd" clip-rule="evenodd" d="M147.328 0.950195H152.033V17.735H160.736V22.0896H147.328V0.950195Z" fill="white"/>
<path fill-rule="evenodd" clip-rule="evenodd" d="M179.24 0.950195H186.375L191.236 14.7264H191.315L196.255 0.950195H203.39V22.0896H198.685V5.85897H198.607L192.961 22.0896H189.433L184.023 5.85897H183.945V22.0896H179.24V0.950195Z" fill="white"/>
<path fill-rule="evenodd" clip-rule="evenodd" d="M230.362 14.2514C230.127 13.618 229.813 13.143 229.421 12.6679C229.029 12.1929 228.48 11.8762 227.931 11.5595C227.382 11.2428 226.755 11.0844 226.049 11.0053V10.9261C227.147 10.6094 228.01 10.0552 228.715 9.26345C229.421 8.47171 229.735 7.52162 229.735 6.33402C229.735 5.14641 229.499 4.2755 229.029 3.56293C228.559 2.85037 227.931 2.29615 227.226 1.90028C226.52 1.50441 225.657 1.26689 224.717 1.10854C223.776 0.950195 222.835 0.950195 221.894 0.950195H213.975V22.0104H222.678C223.619 22.0104 224.56 21.9313 225.501 21.6937C226.442 21.4562 227.304 21.1395 228.088 20.7437C228.872 20.2686 229.499 19.7144 229.97 18.9227C230.44 18.2101 230.676 17.26 230.676 16.1516C230.754 15.5182 230.597 14.8848 230.362 14.2514ZM218.679 4.90889H221.894C222.286 4.90889 222.6 4.90889 222.992 4.98806C223.384 5.06724 223.697 5.14641 224.011 5.30476C224.325 5.4631 224.56 5.70063 224.717 5.93815C224.952 6.33402 225.03 6.65071 225.03 7.12576C225.03 7.52162 224.952 7.91749 224.795 8.23419C224.638 8.55088 224.403 8.78841 224.089 8.94675C223.776 9.1051 223.462 9.26345 223.148 9.34262C222.835 9.4218 222.443 9.50097 222.051 9.50097H218.679V4.90889V4.90889ZM225.736 16.785C225.579 17.1017 225.265 17.3392 225.03 17.5767C224.717 17.8142 224.403 17.8934 224.011 17.9726C223.619 18.0517 223.305 18.1309 222.913 18.1309H218.679V13.3013H222.207C222.6 13.3013 222.992 13.3013 223.462 13.3805C223.932 13.4597 224.324 13.5388 224.717 13.6972C225.109 13.8555 225.422 14.0931 225.657 14.4097C225.893 14.7264 226.049 15.1223 226.049 15.5974C226.049 16.1516 225.971 16.4683 225.736 16.785Z" fill="white"/>
<path fill-rule="evenodd" clip-rule="evenodd" d="M250.669 0.950195H246.749L237.575 22.0896H242.75L244.554 17.6559H252.865L254.668 22.0896H260L250.669 0.950195ZM246.043 13.6972L248.631 7.12576L251.218 13.6972H246.043Z" fill="white"/>
<path d="M111.496 17.0225C113.613 11.6387 117.925 0.950195 117.925 0.950195H112.593L107.34 14.8056H107.262L101.93 0.950195H96.9119L105.615 22.0104H109.379C109.457 22.0896 110.79 18.6851 111.496 17.0225Z" fill="white"/>
<path d="M90.4825 6.01732C92.5995 11.4011 96.912 22.0896 96.912 22.0896H91.5802L86.3269 8.23419H86.2485L80.9168 22.0896H75.8987L84.6803 0.950195H88.4439C88.4439 0.950195 89.7769 4.35467 90.4825 6.01732Z" fill="url(#paint0_linear)"/>
<path fill-rule="evenodd" clip-rule="evenodd" d="M17.8764 7.12562C17.5628 7.12562 17.2492 7.04645 16.9355 6.8881C13.9561 9.18414 11.6038 13.5387 11.6038 13.5387C11.6038 13.5387 11.839 9.02579 14.1129 6.8881C13.4072 7.04645 12.7799 7.20479 12.3095 7.28397C10.1141 7.83818 8.23229 8.55075 8.23229 8.55075C8.23229 8.55075 10.3493 5.62132 13.9561 4.7504C13.3288 4.7504 12.7799 4.67123 12.2311 4.7504C9.01637 4.90875 8.07548 4.98793 8.07548 4.98793C8.07548 4.98793 8.93796 3.95867 11.5254 3.32528C12.4663 3.08775 13.2504 3.00858 13.9561 3.08775C11.9175 2.05849 10.2709 1.4251 10.2709 1.4251C10.2709 1.4251 14.4265 -0.158374 17.0924 2.85023C17.2492 2.53354 17.406 2.21684 17.6412 1.97932C14.5833 -2.59903e-05 10.7413 -0.475069 7.13458 0.95006C1.25401 3.32528 -1.56867 10.0551 0.783558 15.9931C1.48923 17.7349 2.50853 19.16 3.76305 20.2685C3.29261 15.4389 3.60624 10.3717 3.76305 8.47157L9.72204 22.9604C9.95726 22.9604 10.2709 23.0396 10.5061 23.0396L4.54713 8.15488C6.58573 9.97588 13.7208 16.4681 15.9162 21.9311C15.9162 22.0103 15.9947 22.0895 15.9947 22.1686C17.7196 21.4561 19.131 20.3477 20.2287 18.9225C22.0321 12.4303 19.9934 8.47157 18.7389 6.80892C18.5037 7.04645 18.1901 7.12562 17.8764 7.12562Z" fill="url(#paint1_linear)"/>
<path fill-rule="evenodd" clip-rule="evenodd" d="M22.0326 7.2047L21.719 6.57131L19.4451 6.01709C22.111 9.26322 22.3462 12.9844 22.0326 15.993C23.1303 13.3011 23.2087 10.1341 22.0326 7.2047Z" fill="url(#paint2_linear)"/>
</g>
<defs>
<linearGradient id="paint0_linear" x1="92.4324" y1="23.1157" x2="77.8859" y2="6.90915" gradientUnits="userSpaceOnUse">
<stop stop-color="#F38F1A"/>
<stop offset="1" stop-color="#BA359B"/>
</linearGradient>
<linearGradient id="paint1_linear" x1="15.4859" y1="22.641" x2="5.69572" y2="1.46391" gradientUnits="userSpaceOnUse">
<stop stop-color="#F38F1A"/>
<stop offset="1" stop-color="#BA359B"/>
</linearGradient>
<linearGradient id="paint2_linear" x1="25.0438" y1="18.2225" x2="15.2535" y2="-2.95456" gradientUnits="userSpaceOnUse">
<stop stop-color="#F38F1A"/>
<stop offset="1" stop-color="#BA359B"/>
</linearGradient>
<clipPath id="clip0">
<rect width="260" height="46" fill="white"/>
</clipPath>
</defs>
</svg>
