<svg width="410" height="497" viewBox="0 0 410 497" fill="none" xmlns="http://www.w3.org/2000/svg">
<g clip-path="url(#clip0)">
<path fill-rule="evenodd" clip-rule="evenodd" d="M15.2624 53.0163C93.0248 -33.6031 215.069 11.9818 215.069 11.9818C215.069 11.9818 167.286 31.3951 108.755 60.4208C130.142 58.2937 153.575 60.9593 180.188 67.583C254.718 86.1077 280.926 115.834 280.926 115.834C280.926 115.834 252.751 114.353 159.367 109.452C142.532 108.564 125.32 109.802 108.674 112.118C213.453 138.612 275.323 222.324 275.323 222.324C275.323 222.324 219.836 202.211 156.808 185.517C142.128 181.639 123.408 177.897 103.53 173.4C170.706 235.033 176.875 366.375 176.875 366.375C176.875 366.375 106.896 240.633 20.9189 173.481C12.8921 178.058 3.54553 180.455 -6.33975 179.943C-16.0365 179.458 -24.9251 176.174 -32.3054 170.977C-68.8297 219.281 -127.306 330.026 -77.2067 513.927C-98.2432 487.783 -115.401 458.38 -127.818 426.608C-135.145 341.039 -127.253 238.129 -51.3488 146.932L-118.391 163.976L-119.926 166.83C-93.5833 109.856 -51.5373 61.6055 0.663452 27.6255C6.15826 34.9762 11.0874 43.4039 15.2624 53.0163Z" fill="url(#paint0_linear)"/>
<path fill-rule="evenodd" clip-rule="evenodd" d="M51.5443 606.497C115.65 447.852 322.649 260.585 383.038 208.215L209.897 636.815C200.631 637.596 191.258 638 181.777 638C134.882 638 90.2774 628.28 49.8205 610.778C50.4131 609.351 50.9787 607.924 51.5443 606.497Z" fill="url(#paint1_linear)"/>
<path fill-rule="evenodd" clip-rule="evenodd" d="M401.866 215.835C406.66 269.982 416.949 416.026 402.889 553.858C356.183 595.485 297.653 624.134 232.954 634.123L401.866 215.835Z" fill="url(#paint2_linear)"/>
</g>
<defs>
<linearGradient id="paint0_linear" x1="213.768" y1="-33.131" x2="-102.531" y2="492.207" gradientUnits="userSpaceOnUse">
<stop stop-color="#FA481B"/>
<stop offset="1" stop-color="#E1346C"/>
</linearGradient>
<linearGradient id="paint1_linear" x1="328.578" y1="180.513" x2="60.3311" y2="612.538" gradientUnits="userSpaceOnUse">
<stop stop-color="#FA481B"/>
<stop offset="1" stop-color="#E1346C"/>
</linearGradient>
<linearGradient id="paint2_linear" x1="381.071" y1="188.874" x2="92.1809" y2="442.89" gradientUnits="userSpaceOnUse">
<stop stop-color="#FA481B"/>
<stop offset="1" stop-color="#E1346C"/>
</linearGradient>
<clipPath id="clip0">
<rect width="540" height="638" transform="matrix(-1 0 0 1 410 0)" fill="white"/>
</clipPath>
</defs>
</svg>
