<svg width="410" height="497" viewBox="0 0 410 497" fill="none" xmlns="http://www.w3.org/2000/svg">
<g clip-path="url(#clip0)">
<path fill-rule="evenodd" clip-rule="evenodd" d="M394.738 53.0163C316.975 -33.6031 194.931 11.9818 194.931 11.9818C194.931 11.9818 242.714 31.3951 301.245 60.4208C279.858 58.2937 256.425 60.9593 229.812 67.583C155.282 86.1077 129.074 115.834 129.074 115.834C129.074 115.834 157.249 114.353 250.633 109.452C267.468 108.564 284.68 109.802 301.326 112.118C196.547 138.612 134.677 222.324 134.677 222.324C134.677 222.324 190.164 202.211 253.192 185.517C267.872 181.639 286.592 177.897 306.47 173.4C239.294 235.033 233.125 366.375 233.125 366.375C233.125 366.375 303.104 240.633 389.081 173.481C397.108 178.058 406.454 180.455 416.34 179.943C426.036 179.458 434.925 176.174 442.305 170.977C478.83 219.281 537.306 330.026 487.207 513.927C508.243 487.783 525.401 458.38 537.818 426.608C545.145 341.039 537.253 238.129 461.349 146.932L528.391 163.976L529.926 166.83C503.583 109.856 461.537 61.6055 409.337 27.6255C403.842 34.9762 398.913 43.4039 394.738 53.0163Z" fill="url(#paint0_linear)"/>
<path fill-rule="evenodd" clip-rule="evenodd" d="M358.456 606.497C294.35 447.852 87.3514 260.585 26.9623 208.215L200.103 636.815C209.369 637.596 218.742 638 228.223 638C275.118 638 319.723 628.28 360.18 610.778C359.587 609.351 359.021 607.924 358.456 606.497Z" fill="url(#paint1_linear)"/>
<path fill-rule="evenodd" clip-rule="evenodd" d="M8.13448 215.835C3.33998 269.982 -6.94932 416.026 7.11093 553.858C53.8168 595.485 112.347 624.134 177.046 634.123L8.13448 215.835Z" fill="url(#paint2_linear)"/>
</g>
<defs>
<linearGradient id="paint0_linear" x1="196.232" y1="-33.131" x2="512.531" y2="492.207" gradientUnits="userSpaceOnUse">
<stop stop-color="#E1346C"/>
<stop offset="1" stop-color="#FA481B"/>
</linearGradient>
<linearGradient id="paint1_linear" x1="14.1958" y1="176.452" x2="295.613" y2="643.856" gradientUnits="userSpaceOnUse">
<stop stop-color="#E1346C"/>
<stop offset="1" stop-color="#FA481B"/>
</linearGradient>
<linearGradient id="paint2_linear" x1="-81.9928" y1="236.085" x2="160.607" y2="639.016" gradientUnits="userSpaceOnUse">
<stop stop-color="#E1346C"/>
<stop offset="1" stop-color="#FA481B"/>
</linearGradient>
<clipPath id="clip0">
<rect width="540" height="638" fill="white"/>
</clipPath>
</defs>
</svg>
