<svg width="71" height="42" viewBox="0 0 71 42" fill="none" xmlns="http://www.w3.org/2000/svg">
<path d="M0.840689 19.1144C0.687836 19.1144 0.61141 19.1934 0.534984 19.4304L0 23.4586L0.534984 27.4869C0.534984 27.6449 0.687836 27.8028 0.840689 27.8028C0.993541 27.8028 1.06997 27.7238 1.14639 27.4869L1.7578 23.4586L1.14639 19.3514C1.06997 19.1934 0.917115 19.1144 0.840689 19.1144ZM3.74489 16.8239C3.74489 16.6659 3.59203 16.5079 3.43918 16.5079C3.28633 16.5079 3.13348 16.6659 3.13348 16.8239L2.44564 23.4586L3.13348 29.9354C3.13348 30.0934 3.28633 30.2514 3.43918 30.2514C3.59203 30.2514 3.74489 30.0934 3.74489 29.9354L4.50915 23.4586L3.74489 16.8239ZM14.7503 10.742C14.4446 10.742 14.2153 10.979 14.2153 11.2949L13.6803 23.4586L14.2153 31.2782C14.2153 31.5941 14.4446 31.8311 14.7503 31.8311C15.056 31.8311 15.2853 31.5941 15.2853 31.2782L15.8967 23.4586L15.2853 11.2949C15.2853 10.979 15.056 10.742 14.7503 10.742ZM9.0183 15.0072C8.78902 15.0072 8.63617 15.1652 8.63617 15.4021L8.02476 23.4586L8.63617 31.1992C8.63617 31.4362 8.86545 31.5941 9.0183 31.5941C9.24758 31.5941 9.40043 31.4362 9.40043 31.1992L10.0883 23.4586L9.40043 15.4021C9.40043 15.1652 9.24758 15.0072 9.0183 15.0072ZM20.5587 31.8311C20.9408 31.8311 21.1701 31.5151 21.2465 31.1202L21.7815 23.3797L21.1701 7.26665C21.1701 6.87172 20.8644 6.55578 20.4822 6.55578C20.1001 6.55578 19.8708 6.87172 19.7944 7.26665L19.3358 23.4586L19.7944 31.1992C19.8708 31.5151 20.1765 31.8311 20.5587 31.8311ZM32.4047 31.9101C32.8633 31.9101 33.3218 31.5151 33.3218 30.9622L33.704 23.4586L33.2454 4.8181C33.2454 4.34419 32.8633 3.87028 32.3283 3.87028C31.8698 3.87028 31.4112 4.26521 31.4112 4.8181L31.1055 23.4586L31.4112 30.9622C31.4876 31.4362 31.8698 31.9101 32.4047 31.9101ZM26.4435 31.8311C26.902 31.8311 27.2077 31.5151 27.2077 31.0412L27.6663 23.4586L27.2077 7.18766C27.2077 6.71375 26.8256 6.39781 26.4435 6.39781C25.9849 6.39781 25.6792 6.71375 25.6792 7.18766L25.2207 23.4586L25.6028 31.0412C25.6028 31.5151 25.9849 31.8311 26.4435 31.8311ZM11.8461 31.7521C12.0753 31.7521 12.3046 31.5151 12.3046 31.2782L12.9925 23.4586L12.3046 16.034C12.3046 15.7971 12.0753 15.5601 11.8461 15.5601C11.6168 15.5601 11.3875 15.7971 11.3875 16.034L10.7761 23.4586L11.3875 31.2782C11.3875 31.5941 11.6168 31.7521 11.8461 31.7521ZM6.19053 31.3572C6.34338 31.3572 6.49623 31.1992 6.57266 30.9622L7.33692 23.4586L6.57266 15.6391C6.57266 15.4021 6.41981 15.2442 6.19053 15.2442C6.03767 15.2442 5.88482 15.4021 5.8084 15.6391L5.12056 23.4586L5.8084 30.9622C5.88482 31.1992 6.03767 31.3572 6.19053 31.3572ZM29.3477 6.87172C28.8891 6.87172 28.507 7.26665 28.507 7.74056L28.1249 23.4586L28.507 31.0412C28.507 31.5151 28.8891 31.9101 29.3477 31.9101C29.8062 31.9101 30.1884 31.5151 30.1884 31.0412L30.6469 23.4586L30.1884 7.74056C30.1884 7.26665 29.8062 6.87172 29.3477 6.87172ZM17.6545 31.8311C17.9602 31.8311 18.2659 31.5941 18.2659 31.1992L18.8773 23.3797L18.2659 8.45143C18.2659 8.13549 17.9602 7.81955 17.6545 7.81955C17.3488 7.81955 17.0431 8.0565 17.0431 8.45143L16.5081 23.3797L17.0431 31.1992C17.0431 31.5941 17.2723 31.8311 17.6545 31.8311ZM24.1507 31.1202L24.6857 23.4586L24.1507 6.71375C24.1507 6.31882 23.845 6.00288 23.4629 6.00288C23.0807 6.00288 22.775 6.31882 22.775 6.71375L22.3165 23.3797L22.775 31.0412C22.775 31.4362 23.0807 31.7521 23.4629 31.7521C23.845 31.8311 24.1507 31.5151 24.1507 31.1202ZM62.2874 13.8224C61.0646 13.8224 59.9182 14.0594 58.9246 14.5333C58.2368 6.39781 51.6642 0 43.563 0C41.5759 0 39.6652 0.394927 37.9839 1.10579C37.296 1.34275 37.1432 1.65869 37.1432 2.1326V30.8043C37.1432 31.3572 37.6017 31.8311 38.0603 31.9101C38.0603 31.9101 62.1346 31.9101 62.2874 31.9101C67.1023 31.9101 71 27.8818 71 22.9057C71 17.9297 67.1787 13.8224 62.2874 13.8224ZM35.3854 2.1326C34.8504 2.1326 34.3918 2.60652 34.3918 3.15941L34.0097 23.5376L34.3918 30.9622C34.3918 31.5151 34.8504 31.9101 35.3854 31.9101C35.9203 31.9101 36.3025 31.4362 36.3789 30.8833L36.8375 23.4586L36.3025 3.08043C36.3025 2.52753 35.9203 2.1326 35.3854 2.1326ZM7.03122 37.676C5.96125 37.439 5.73197 37.2811 5.73197 36.8861C5.73197 36.5702 5.96125 36.2543 6.64908 36.2543C7.26049 36.2543 7.71905 36.4912 8.10118 36.9651L9.0183 36.0173C8.40689 35.3854 7.64263 34.9905 6.64908 34.9905C5.34984 34.9905 4.3563 35.7803 4.3563 36.9651C4.3563 38.3079 5.19699 38.7028 6.41981 38.9398C7.64263 39.2557 7.87191 39.4137 7.87191 39.8876C7.87191 40.3615 7.48977 40.5985 6.72551 40.5985C6.1141 40.5985 5.50269 40.3615 5.04413 39.8086L4.12702 40.6774C4.58558 41.4673 5.57912 41.8622 6.64908 41.8622C8.40689 41.8622 9.24758 40.9934 9.24758 39.7296C9.24758 38.2289 8.10118 37.9129 7.03122 37.676ZM13.0689 34.9115C11.3111 34.9115 10.2411 36.3332 10.2411 38.3869C10.2411 40.4405 11.3111 41.8622 13.0689 41.8622C14.8267 41.8622 15.8967 40.4405 15.8967 38.3869C15.8967 36.3332 14.8267 34.9115 13.0689 34.9115ZM13.0689 40.5195C11.9989 40.5195 11.5404 39.5716 11.5404 38.3869C11.5404 37.2021 11.9989 36.2543 13.0689 36.2543C14.1389 36.2543 14.5974 37.2021 14.5974 38.3869C14.521 39.5716 14.1389 40.5195 13.0689 40.5195ZM21.1701 38.7818C21.1701 39.8876 20.6351 40.5195 19.7944 40.5195C18.9537 40.5195 18.4952 39.8086 18.4952 38.7818V34.9905H17.1959V38.7818C17.1959 40.7564 18.2659 41.8622 19.8708 41.8622C21.5522 41.8622 22.5457 40.7564 22.5457 38.7818V34.9905H21.2465C21.1701 34.9905 21.1701 38.7818 21.1701 38.7818ZM28.1249 37.834C28.1249 38.2289 28.1249 39.0187 28.1249 39.3347C28.0484 39.1767 27.8192 38.8608 27.6663 38.5448L25.3735 34.9905H24.1507V41.7042H25.4499V38.7028C25.4499 38.3079 25.4499 37.518 25.4499 37.2021C25.5264 37.3601 25.7557 37.676 25.9085 37.9919L28.2777 41.7042H29.4241V34.9905H28.1249C28.1249 34.9905 28.1249 37.834 28.1249 37.834ZM33.0926 34.9905H31.0291V41.7042H32.9397C34.6211 41.7042 36.3025 40.6774 36.3025 38.3079C36.3025 35.9383 34.9268 34.9905 33.0926 34.9905ZM33.0161 40.4405H32.4047V36.3332H33.0926C34.4682 36.3332 35.0032 37.0441 35.0032 38.3869C35.0032 39.6506 34.3918 40.4405 33.0161 40.4405ZM40.3531 36.2543C40.9645 36.2543 41.3466 36.4912 41.5759 36.9651L42.7987 36.4122C42.4166 35.5434 41.6523 34.9115 40.4295 34.9115C38.7481 34.9115 37.5253 36.3332 37.5253 38.3869C37.5253 40.5195 38.6717 41.8622 40.3531 41.8622C41.4995 41.8622 42.3401 41.3093 42.7987 40.3615L41.7287 39.6506C41.3466 40.2825 41.0409 40.5195 40.4295 40.5195C39.436 40.5195 38.901 39.5716 38.901 38.3869C38.8245 37.1231 39.3595 36.2543 40.3531 36.2543ZM45.2443 34.9905H43.9451V41.7042H47.8428V40.3615H45.2443V34.9905ZM51.282 34.9115C49.5242 34.9115 48.4543 36.3332 48.4543 38.3869C48.4543 40.4405 49.5242 41.8622 51.282 41.8622C53.0398 41.8622 54.1098 40.4405 54.1098 38.3869C54.1098 36.3332 53.0398 34.9115 51.282 34.9115ZM51.282 40.5195C50.2121 40.5195 49.7535 39.5716 49.7535 38.3869C49.7535 37.2021 50.2121 36.2543 51.282 36.2543C52.352 36.2543 52.7341 37.2021 52.7341 38.3869C52.7341 39.5716 52.352 40.5195 51.282 40.5195ZM59.3832 38.7818C59.3832 39.8876 58.8482 40.5195 58.0075 40.5195C57.1668 40.5195 56.7083 39.8086 56.7083 38.7818V34.9905H55.409V38.7818C55.409 40.7564 56.479 41.8622 58.084 41.8622C59.7653 41.8622 60.7589 40.7564 60.7589 38.7818V34.9905H59.4596V38.7818H59.3832ZM64.3509 34.9905H62.2874V41.7042H64.1981C65.8794 41.7042 67.5608 40.6774 67.5608 38.3079C67.5608 35.9383 66.1851 34.9905 64.3509 34.9905ZM64.2745 40.4405H63.6631V36.3332H64.3509C65.7266 36.3332 66.2616 37.0441 66.2616 38.3869C66.2616 39.6506 65.6502 40.4405 64.2745 40.4405Z" fill="white"/>
</svg>
