<svg xmlns="http://www.w3.org/2000/svg" viewBox="-852 389 213.2 22.1"><path fill="#004B85" d="M-798.4 403.8h-1.7v6.5c0 .5-.4.8-.8.8h-4.2c-.5 0-.9-.4-.9-.9V390c0-.5.4-.9.9-.9h6.7c2.8 0 4.9.6 6.3 1.8 1.4 1.2 2.1 2.9 2.1 5.2 0 2.5-.7 4.4-2.2 5.7-1.5 1.3-3.6 2-6.2 2zm-.2-9.9h-1.5v5.1h1.1c.9 0 1.6-.2 2.1-.8.5-.5.8-1.2.8-2.1 0-1.5-.8-2.2-2.5-2.2zm-10.7 17.2h-4.3c-.5 0-.9-.4-.9-.9v-20.3c0-.5.4-.8.9-.8h4.2c.5 0 .8.4.8.8v20.3c.1.5-.2.8-.7.9zm-7.2 0h-4.1-.1c-.6 0-1.1-.3-1.4-.8l-4.2-7.2h-1.5v7.1c0 .5-.4.9-.9.9h-4.1-.1c-.5 0-.9-.4-.9-.9V390c0-.4.4-.8.9-.8h6.3c6 0 9 2.2 9 6.5 0 2.5-1.2 4.5-3.7 5.9l5.5 8.2c.1.1.2.3.2.6s-.4.7-.9.7zm-10.1-17.5h-1.2v5h1.1c2.1 0 3.1-.9 3.1-2.8 0-1.5-1-2.2-3-2.2zm-8.7-.5c0 .5-.4.8-.8.9h-4.5v16.3c0 .5-.4.9-.9.9h-4.2c-.5 0-.9-.4-.9-.9V394h-4.5c-.5 0-.9-.4-.9-.9V390v-.1c0-.5.4-.9.8-.9h14.9c.5 0 .9.4.9.9l.1 3.2z"></path><path fill="#16BCFF" d="M-742.5 390.3s0 .1 0 0l-6.6 12.2v7.8c0 .5-.4.9-.9.9h-4.3c-.4 0-.8-.4-.8-.9v-7.5l-6.5-12.3c-.1-.1-.1-.3-.1-.4 0-.5.4-.9.9-.9h4c.7 0 1.3.4 1.5 1l3.3 7.1 3.3-7.1c.2-.6.8-1 1.5-1h3.9c.5 0 .8.4.8.9.1 0 .1.1 0 .2zm-21.4 20.8s-.1 0 0 0h-3.7c-.5 0-.9-.4-.9-.9v-8.8-1.7c0-.6.1-2.1.2-4.5h-.1l-4.1 14.6c-.2.7-.8 1.2-1.6 1.2h-3.1c-.8 0-1.4-.5-1.6-1.3l-4.1-14.6h-.1c.2 2.7.3 4.8.3 6.3v8.7c0 .5-.4.8-.8.8h-3.6c-.5 0-.8-.4-.8-.8V390c0-.5.4-.9.9-.9h5.8c.7 0 1.4.5 1.6 1.1l4.2 14.5h.1l4.1-14.4c.2-.7.8-1.2 1.6-1.2H-763.7c.5 0 .8.4.9.8v20.3c-.3.5-.7.9-1.1.9z"></path><path fill="#FF7E00" d="M-639.7 411.1h-3.7c-.5 0-.8-.4-.8-.9v-8.8-1.7c0-.6.1-2.1.2-4.5h-.1l-4.1 14.6c-.2.7-.8 1.2-1.6 1.2h-3.1c-.8 0-1.4-.5-1.6-1.2l-4.1-14.6h-.1c.2 2.7.3 4.8.3 6.3v8.7c0 .5-.4.8-.8.8h-3.6c-.5 0-.8-.4-.8-.8V390c0-.5.4-.9.9-.9h5.8c.7 0 1.3.5 1.6 1.1l4.2 14.5h.1l4.1-14.4c.2-.7.8-1.2 1.6-1.2h5.8c.5 0 .8.4.9.8v20.3c-.2.5-.6.9-1.1.9zm-25.7 0h-4.1c-.8 0-1.5-.6-1.6-1.3l-.7-2.8h-7.1l-.8 2.8c-.2.7-.8 1.3-1.6 1.3h-4.1c-.5 0-.8-.4-.8-.9 0-.1 0-.2.1-.3l6.4-19.7c.2-.7.8-1.2 1.6-1.2h5.5c.8 0 1.4.5 1.6 1.3l6.5 19.7v.2c0 .5-.4.9-.9.9zm-8.6-12.6c-.2-.8-.5-1.8-.8-3.1-.3-1.3-.5-2.2-.6-2.7-.1.5-.3 1.4-.5 2.5-.3 1.2-.9 3.5-1.8 6.9h4.7l-1-3.6zm-13 11.7c0 .5-.4.9-.9.9h-12.7c-.5 0-.9-.4-.9-.9V390c0-.5.4-.9.9-.9h12.7c.5 0 .8.4.8.9v3.1c0 .5-.4.9-.9.9h-7.7v3.5h6.3c.5 0 .8.4.8.8v3.1c0 .5-.4.9-.8.9h-6.3v4.1h7.7c.5 0 .9.4.9.9v.1l.1 2.8zm-16.5.9h-4.1-.1c-.6 0-1.1-.3-1.4-.8l-4.2-7.2h-1.5v7.1c0 .5-.4.9-.9.9h-4.1-.1c-.5 0-.9-.4-.9-.9V390c0-.4.4-.8.8-.8h6.3c6 0 9 2.2 9 6.5 0 2.5-1.2 4.5-3.7 5.9l5.5 8.2c.1.1.2.3.2.5.1.4-.3.8-.8.8zm-10.1-17.5h-1.2v5h1.1c2.1 0 3.1-.9 3.1-2.8.1-1.5-1-2.2-3-2.2zm-20.3 17.5h-6.3c-.5 0-.8-.4-.8-.9V390v-.1c0-.5.4-.8.8-.9h6.8c3.5 0 6.3.9 8.2 2.7 1.9 1.8 2.9 4.4 2.9 7.8 0 3.7-1 6.5-3 8.5-2.1 2.1-4.9 3.1-8.6 3.1zm4.2-15.8c-.8-1-2-1.5-3.6-1.5h-1.7v12.3h1.3c1.8 0 3.1-.5 4-1.6.8-1 1.3-2.6 1.3-4.8-.1-1.9-.5-3.4-1.3-4.4z"></path></svg>